<svg xmlns="http://www.w3.org/2000/svg" xmlns:xlink="http://www.w3.org/1999/xlink" width="500" zoomAndPan="magnify" viewBox="0 0 375 374.999991" height="500" preserveAspectRatio="xMidYMid meet" version="1.0"><defs><g/><clipPath id="2caf6bda61"><path d="M 210.398438 19.5 L 371.511719 19.5 L 371.511719 121.84375 L 210.398438 121.84375 Z M 210.398438 19.5 " clip-rule="nonzero"/></clipPath><clipPath id="066dab9ec9"><path d="M 0.398438 0.5 L 161.511719 0.5 L 161.511719 102.84375 L 0.398438 102.84375 Z M 0.398438 0.5 " clip-rule="nonzero"/></clipPath><clipPath id="d65ec14fd3"><rect x="0" width="162" y="0" height="103"/></clipPath><clipPath id="3fe31ba901"><path d="M 3.488281 19.5 L 225.019531 19.5 L 225.019531 121.84375 L 3.488281 121.84375 Z M 3.488281 19.5 " clip-rule="nonzero"/></clipPath><clipPath id="918da7fe92"><path d="M 0.488281 0.5 L 222 0.5 L 222 102.84375 L 0.488281 102.84375 Z M 0.488281 0.5 " clip-rule="nonzero"/></clipPath><clipPath id="ea38dd5b85"><rect x="0" width="223" y="0" height="103"/></clipPath><clipPath id="aff8586ae0"><path d="M 3.492188 19.5 L 224.890625 19.5 L 224.890625 121.726562 L 3.492188 121.726562 Z M 3.492188 19.5 " clip-rule="nonzero"/></clipPath><clipPath id="b33e6314cc"><rect x="0" width="193" y="0" height="89"/></clipPath><clipPath id="f580ff4003"><rect x="0" width="129" y="0" height="89"/></clipPath><clipPath id="5b1e14a9c4"><path d="M 50 131 L 331 131 L 331 162.761719 L 50 162.761719 Z M 50 131 " clip-rule="nonzero"/></clipPath><clipPath id="f1d1b2d64a"><rect x="0" width="281" y="0" height="32"/></clipPath><clipPath id="401f6db2dc"><rect x="0" width="372" y="0" height="163"/></clipPath></defs><g transform="matrix(1, 0, 0, 1, 0, 101)"><g clip-path="url(#401f6db2dc)"><g clip-path="url(#2caf6bda61)"><g transform="matrix(1, 0, 0, 1, 210, 19)"><g clip-path="url(#d65ec14fd3)"><g clip-path="url(#066dab9ec9)"><path fill="#ffffff" d="M 0.398438 0.5 L 161.507812 0.5 L 161.507812 102.84375 L 0.398438 102.84375 Z M 0.398438 0.5 " fill-opacity="1" fill-rule="nonzero"/></g></g></g></g><g clip-path="url(#3fe31ba901)"><g transform="matrix(1, 0, 0, 1, 3, 19)"><g clip-path="url(#ea38dd5b85)"><g clip-path="url(#918da7fe92)"><path fill="#004aad" d="M 0.488281 0.5 L 221.960938 0.5 L 221.960938 102.84375 L 0.488281 102.84375 Z M 0.488281 0.5 " fill-opacity="1" fill-rule="nonzero"/></g></g></g></g><g clip-path="url(#aff8586ae0)"><path stroke-linecap="butt" transform="matrix(0.48447, 0, 0, 0.48447, 3.492733, 19.501906)" fill="none" stroke-linejoin="miter" d="M -0.00112614 -0.00393471 L 457.240188 -0.00393471 L 457.240188 211.237053 L -0.00112614 211.237053 Z M -0.00112614 -0.00393471 " stroke="#004aad" stroke-width="18.577015" stroke-opacity="1" stroke-miterlimit="4"/></g><g transform="matrix(1, 0, 0, 1, 18, 26)"><g clip-path="url(#b33e6314cc)"><g fill="#ffffff" fill-opacity="1"><g transform="translate(0.271776, 73.329126)"><g><path d="M 61.125 -58.21875 L 61.125 -46.5625 L 37.84375 -46.5625 L 37.84375 0 L 26.203125 0 L 26.203125 -46.5625 L 2.90625 -46.5625 L 2.90625 -58.21875 Z M 61.125 -58.21875 "/></g></g></g><g fill="#ffffff" fill-opacity="1"><g transform="translate(64.309141, 73.329126)"><g><path d="M 61.125 -46.5625 L 61.125 -34.921875 C 61.125 -32.785156 60.601562 -30.832031 59.5625 -29.0625 C 58.519531 -27.289062 57.113281 -25.882812 55.34375 -24.84375 C 53.570312 -23.800781 51.617188 -23.28125 49.484375 -23.28125 L 37.84375 -23.28125 L 49.484375 -11.640625 L 61.125 -11.640625 L 61.125 0 L 47.15625 0 C 45.5 0 44.09375 -0.582031 42.9375 -1.75 L 21.390625 -23.28125 L 14.546875 -23.28125 L 14.546875 0 L 2.90625 0 L 2.90625 -58.21875 L 49.484375 -58.21875 C 51.617188 -58.21875 53.570312 -57.691406 55.34375 -56.640625 C 57.113281 -55.597656 58.519531 -54.191406 59.5625 -52.421875 C 60.601562 -50.648438 61.125 -48.695312 61.125 -46.5625 Z M 49.484375 -46.5625 L 14.546875 -46.5625 L 14.546875 -34.921875 L 49.484375 -34.921875 Z M 49.484375 -46.5625 "/></g></g></g><g fill="#ffffff" fill-opacity="1"><g transform="translate(128.346506, 73.329126)"><g><path d="M 49.484375 0 L 14.546875 0 C 12.410156 0 10.457031 -0.519531 8.6875 -1.5625 C 6.925781 -2.601562 5.519531 -4.007812 4.46875 -5.78125 C 3.425781 -7.550781 2.90625 -9.503906 2.90625 -11.640625 L 2.90625 -58.21875 L 14.546875 -58.21875 L 14.546875 -11.640625 L 49.484375 -11.640625 L 49.484375 -58.21875 L 61.125 -58.21875 L 61.125 -11.640625 C 61.125 -9.503906 60.601562 -7.550781 59.5625 -5.78125 C 58.519531 -4.007812 57.113281 -2.601562 55.34375 -1.5625 C 53.570312 -0.519531 51.617188 0 49.484375 0 Z M 49.484375 0 "/></g></g></g></g></g><g transform="matrix(1, 0, 0, 1, 234, 26)"><g clip-path="url(#f580ff4003)"><g fill="#004aad" fill-opacity="1"><g transform="translate(0.455131, 73.32903)"><g><path d="M 61.125 0 L 14.546875 0 C 12.410156 0 10.457031 -0.519531 8.6875 -1.5625 C 6.925781 -2.601562 5.519531 -4.007812 4.46875 -5.78125 C 3.425781 -7.550781 2.90625 -9.503906 2.90625 -11.640625 L 2.90625 -46.5625 C 2.90625 -48.695312 3.425781 -50.648438 4.46875 -52.421875 C 5.519531 -54.191406 6.925781 -55.597656 8.6875 -56.640625 C 10.457031 -57.691406 12.410156 -58.21875 14.546875 -58.21875 L 61.125 -58.21875 L 61.125 -46.5625 L 14.546875 -46.5625 L 14.546875 -11.640625 L 61.125 -11.640625 Z M 61.125 0 "/></g></g></g><g fill="#004aad" fill-opacity="1"><g transform="translate(64.492496, 73.32903)"><g><path d="M 49.484375 0 L 14.546875 0 C 12.410156 0 10.457031 -0.519531 8.6875 -1.5625 C 6.925781 -2.601562 5.519531 -4.007812 4.46875 -5.78125 C 3.425781 -7.550781 2.90625 -9.503906 2.90625 -11.640625 L 2.90625 -46.5625 C 2.90625 -48.695312 3.425781 -50.648438 4.46875 -52.421875 C 5.519531 -54.191406 6.925781 -55.597656 8.6875 -56.640625 C 10.457031 -57.691406 12.410156 -58.21875 14.546875 -58.21875 L 49.484375 -58.21875 C 51.617188 -58.21875 53.570312 -57.691406 55.34375 -56.640625 C 57.113281 -55.597656 58.519531 -54.191406 59.5625 -52.421875 C 60.601562 -50.648438 61.125 -48.695312 61.125 -46.5625 L 61.125 -11.640625 C 61.125 -9.554688 60.601562 -7.628906 59.5625 -5.859375 C 58.519531 -4.085938 57.125 -2.664062 55.375 -1.59375 C 53.625 -0.53125 51.660156 0 49.484375 0 Z M 14.546875 -46.5625 L 14.546875 -11.640625 L 49.484375 -11.640625 L 49.484375 -46.5625 Z M 14.546875 -46.5625 "/></g></g></g></g></g><g clip-path="url(#5b1e14a9c4)"><g transform="matrix(1, 0, 0, 1, 50, 131)"><g clip-path="url(#f1d1b2d64a)"><g fill="#000000" fill-opacity="1"><g transform="translate(1.126147, 24.909709)"><g><path d="M 11.265625 0 L 2.359375 0 L 2.359375 -21.203125 L 16.828125 -21.203125 C 20.285156 -21.203125 23.078125 -20.941406 25.203125 -20.421875 C 27.328125 -19.910156 28.875 -19.097656 29.84375 -17.984375 C 30.820312 -16.878906 31.3125 -15.4375 31.3125 -13.65625 C 31.3125 -11.882812 30.820312 -10.441406 29.84375 -9.328125 C 28.875 -8.222656 27.328125 -7.410156 25.203125 -6.890625 C 23.078125 -6.378906 20.285156 -6.125 16.828125 -6.125 L 11.265625 -6.125 Z M 11.265625 -11.34375 L 16.34375 -11.359375 C 17.757812 -11.359375 18.875 -11.414062 19.6875 -11.53125 C 20.507812 -11.644531 21.113281 -11.804688 21.5 -12.015625 C 21.894531 -12.222656 22.144531 -12.46875 22.25 -12.75 C 22.363281 -13.03125 22.421875 -13.332031 22.421875 -13.65625 C 22.421875 -13.988281 22.363281 -14.296875 22.25 -14.578125 C 22.144531 -14.859375 21.894531 -15.101562 21.5 -15.3125 C 21.113281 -15.519531 20.507812 -15.675781 19.6875 -15.78125 C 18.875 -15.894531 17.757812 -15.953125 16.34375 -15.953125 L 11.265625 -15.953125 Z M 11.265625 -11.34375 "/></g></g></g><g fill="#000000" fill-opacity="1"><g transform="translate(40.088018, 24.909709)"><g><path d="M 35.609375 0 L 26.59375 0 L 24.609375 -3.46875 L 11.234375 -3.46875 L 9.234375 0 L 0.21875 0 L 13.78125 -21.1875 L 22.046875 -21.1875 Z M 21.609375 -8.71875 L 17.921875 -15.140625 L 14.234375 -8.71875 Z M 21.609375 -8.71875 "/></g></g></g><g fill="#000000" fill-opacity="1"><g transform="translate(82.388561, 24.909709)"><g><path d="M 11.265625 0 L 2.359375 0 L 2.359375 -21.203125 L 11.265625 -21.203125 Z M 11.265625 0 "/></g></g></g><g fill="#000000" fill-opacity="1"><g transform="translate(102.485459, 24.909709)"><g><path d="M 33.828125 0 L 23.25 0 L 11.265625 -14.34375 L 11.265625 0 L 2.359375 0 L 2.359375 -21.203125 L 12.953125 -21.203125 L 24.9375 -6.9375 L 24.9375 -21.203125 L 33.828125 -21.203125 Z M 33.828125 0 "/></g></g></g><g fill="#000000" fill-opacity="1"><g transform="translate(145.140544, 24.909709)"><g><path d="M 18.09375 0 L 9.1875 0 L 9.1875 -15.953125 L 0.890625 -15.953125 L 0.890625 -21.203125 L 26.390625 -21.203125 L 26.390625 -15.953125 L 18.09375 -15.953125 Z M 18.09375 0 "/></g></g></g><g fill="#000000" fill-opacity="1"><g transform="translate(178.887592, 24.909709)"><g><path d="M 11.265625 0 L 2.359375 0 L 2.359375 -21.203125 L 11.265625 -21.203125 Z M 11.265625 0 "/></g></g></g><g fill="#000000" fill-opacity="1"><g transform="translate(198.984483, 24.909709)"><g><path d="M 33.828125 0 L 23.25 0 L 11.265625 -14.34375 L 11.265625 0 L 2.359375 0 L 2.359375 -21.203125 L 12.953125 -21.203125 L 24.9375 -6.9375 L 24.9375 -21.203125 L 33.828125 -21.203125 Z M 33.828125 0 "/></g></g></g><g fill="#000000" fill-opacity="1"><g transform="translate(241.639582, 24.909709)"><g><path d="M 16.03125 0.453125 C 10.789062 0.453125 6.9375 -0.625 4.46875 -2.78125 C 2.28125 -4.6875 1.1875 -7.285156 1.1875 -10.578125 C 1.1875 -13.878906 2.28125 -16.488281 4.46875 -18.40625 C 6.9375 -20.5625 10.789062 -21.640625 16.03125 -21.640625 C 19.019531 -21.640625 21.503906 -21.300781 23.484375 -20.625 C 25.460938 -19.957031 27.015625 -19.046875 28.140625 -17.890625 C 29.273438 -16.734375 30.046875 -15.398438 30.453125 -13.890625 L 20.9375 -13.890625 C 19.945312 -15.265625 18.3125 -15.953125 16.03125 -15.953125 C 13.882812 -15.953125 12.304688 -15.332031 11.296875 -14.09375 C 10.484375 -13.101562 10.078125 -11.929688 10.078125 -10.578125 C 10.078125 -9.234375 10.484375 -8.066406 11.296875 -7.078125 C 12.304688 -5.847656 13.882812 -5.234375 16.03125 -5.234375 C 17.769531 -5.234375 19.070312 -5.382812 19.9375 -5.6875 C 20.8125 -5.988281 21.453125 -6.378906 21.859375 -6.859375 L 18.390625 -6.859375 L 18.390625 -10.578125 L 30.453125 -10.578125 L 30.453125 0.015625 L 26.765625 0.015625 L 26.015625 -2.046875 C 23.660156 -0.378906 20.332031 0.453125 16.03125 0.453125 Z M 16.03125 0.453125 "/></g></g></g></g></g></g></g></g></svg>